<svg width="4921" height="845" viewBox="0 0 4921 845" fill="none" xmlns="http://www.w3.org/2000/svg">
<g clip-path="url(#clip0_1_29)">
<rect width="4921" height="845" fill="#0A0A0C"/>
<g clip-path="url(#clip1_1_29)">
<path d="M418.815 0.994277C394.76 4.59533 375.458 15.5426 354.284 37.7251L340.024 52.8495H331.525C320.578 52.8495 314.384 54.578 298.252 62.3563C283.415 69.4142 269.731 81.0816 261.233 93.7578C254.894 103.264 254.751 103.408 241.211 108.018C222.485 114.212 212.114 120.982 196.27 136.97C180.857 152.527 173.655 163.33 166.885 181.047C160.979 196.315 158.098 211.728 158.098 228.293C158.098 242.409 158.098 242.553 154.209 244.282C151.904 245.29 134.043 252.204 114.165 259.55C94.4319 266.897 69.0801 276.547 57.9889 280.869C46.8976 285.046 32.7815 290.376 26.5877 292.536C11.7513 297.865 6.85388 301.467 2.67664 309.677C-0.348248 316.015 -0.636332 317.167 0.948131 322.497C1.95643 325.666 4.69323 330.131 7.14197 332.436C9.73471 334.74 28.6042 343.959 51.363 354.042C73.2576 363.693 94.1435 373.056 98.0326 375.072L104.803 378.529L104.514 410.362L104.082 442.34L85.6448 451.847C58.277 465.819 50.2106 475.182 50.0666 492.178C50.0666 501.109 54.6759 512.489 60.4379 517.818C62.4542 519.691 73.1135 525.164 84.0605 530.206L104.082 539.424L104.803 595.313C105.523 651.2 105.523 651.348 109.124 658.546C115.894 672.522 124.248 678.857 154.497 692.976C169.622 700.032 192.524 710.834 205.632 716.886C218.74 723.079 250.862 738.202 276.933 750.736C392.167 805.613 463.324 839.174 471.102 842.058C481.185 845.805 496.31 846.088 506.249 842.779C513.163 840.474 531.6 832.118 565.738 815.985C575.677 811.233 600.596 799.42 621.192 789.628C672.475 765.428 679.673 761.971 730.668 737.771C786.845 711.124 822.71 694.128 836.539 687.787C850.941 681.162 861.17 671.654 867.074 659.557L871.825 649.906L872.546 594.74L873.267 539.568L891.132 531.646C911.438 522.86 918.068 517.53 923.109 506.006C925.556 500.389 925.987 496.932 925.414 490.594C923.83 472.157 915.042 464.378 879.46 449.11L872.546 446.229V411.947V377.665L878.74 375.072C882.055 373.632 902.366 364.845 923.682 355.77C945.146 346.552 964.305 337.909 966.462 336.325C972.224 332.291 976.402 325.666 977.265 319.328C978.134 312.702 973.093 302.619 966.752 298.442C963.153 296.137 937.221 286.198 897.036 271.794C886.375 267.905 864.338 259.982 848.063 254.077L818.532 243.273L817.669 224.836C815.938 189.113 803.699 161.313 778.488 136.106C764.949 122.566 750.258 113.203 732.825 107.01C720.869 102.832 719.286 101.68 715.545 95.9184C706.036 81.802 689.04 67.1095 673.48 60.1958C663.977 55.8744 645.823 51.4091 637.473 51.4091C633.584 51.4091 632 50.4008 629.258 46.3676C622.492 36.2846 602.47 18.9996 590.801 12.9498C572.941 3.73108 560.553 0.562149 541.971 0.418107C523.246 0.274064 514.171 2.29066 499.191 9.63683L488.099 15.1105L478.448 10.357C461.163 1.57044 438.549 -1.88657 418.815 0.994277ZM447.767 45.0712C460.443 48.8163 469.23 54.0018 478.304 63.0767C482.914 67.8299 487.091 71.5748 487.523 71.5748C488.099 71.5748 492.421 67.3979 497.174 62.5005C507.833 51.4091 521.373 44.351 534.193 43.1987C550.47 41.6142 570.779 48.0961 580.286 58.035L584.896 62.7883L564.154 72.7272C552.775 78.0571 539.234 84.3946 534.049 86.6993C528.864 89.0041 516.476 95.0538 506.537 100.095L488.387 109.17L471.246 100.816C461.739 96.2062 450.504 90.8768 446.183 89.0041C441.862 86.9877 431.779 82.3782 423.856 78.6333C415.934 75.0319 405.131 69.9904 399.801 67.3979C394.328 64.9489 390.007 62.3563 390.007 61.636C390.007 60.9162 392.023 58.6112 394.472 56.4506C408.732 44.6391 430.338 39.8857 447.767 45.0712ZM362.062 98.7987C368.977 101.103 426.737 127.608 460.587 144.028C466.781 147.053 478.304 157.568 484.355 165.779C488.099 170.82 491.7 169.524 494.725 162.178C496.022 158.576 499.478 154.687 503.944 151.519C509.561 147.197 558.536 122.998 601.749 102.976C637.904 86.1231 676.216 100.527 686.735 134.81L689.324 142.876L699.843 143.885C722.022 146.189 740.176 155.696 753.567 171.972C771.001 192.859 778.199 220.803 772.727 244.426C769.849 256.669 767.254 260.99 762.645 261.423C757.025 262.143 757.893 264.016 765.67 268.049C779.499 275.107 793.18 293.832 795.916 309.389C797.358 318.463 796.785 335.461 794.764 341.654C793.759 344.679 792.89 351.161 792.607 356.202C792.459 361.244 792.027 365.709 791.738 365.998C790.733 366.862 758.177 381.266 757.025 381.266C756.451 381.266 755.872 366.142 755.589 347.704L755.151 314.287L750.979 306.364C748.674 302.043 742.333 293.832 737.003 288.214C730.236 281.301 727.063 276.98 727.063 274.531C727.063 272.514 725.627 268.049 723.753 264.592C716.697 250.62 695.665 247.451 683.42 258.542C678.958 262.575 675.212 271.218 675.212 277.556C675.212 288.935 682.847 299.018 694.802 303.195C701.427 305.5 702.148 306.22 707.62 317.167L713.382 328.691L712.951 364.701L712.519 400.711L689.472 410.507C676.654 415.98 665.993 420.014 665.703 419.725C665.272 419.293 664.551 402.873 663.977 383.139L662.967 347.272L658.215 337.765C652.595 326.386 638.046 311.982 619.897 299.882C612.262 294.841 607.511 290.663 606.358 287.638C602.18 278.132 589.505 272.802 576.541 275.251C570.347 276.403 561.705 283.749 559.112 290.087C552.342 305.932 563.145 324.513 579.998 326.242C585.904 326.818 588.497 327.97 594.545 333.156C598.581 336.613 604.916 341.51 608.521 344.103C612.12 346.696 616.73 351.737 618.745 355.338L622.634 361.82L623.065 401.144L623.496 440.467L612.262 445.509C589.361 456.024 558.104 469.132 555.799 469.132C554.359 469.132 550.181 467.115 546.436 464.81L539.522 460.345L490.404 460.778L441.141 461.21L434.228 466.539L427.314 471.869L419.103 468.267C414.638 466.251 398.073 459.049 382.516 452.279C360.622 442.772 353.996 439.315 353.42 436.867C352.987 435.282 352.555 417.997 352.555 398.551C352.555 354.906 353.132 352.889 363.935 347.128C379.924 338.774 383.525 318.752 371.569 305.788C357.597 290.952 331.525 297.865 328.5 317.167C328.068 320.912 326.052 324.657 322.739 328.115C312.944 338.485 311.648 344.535 311.072 383.715C310.783 403.016 310.207 418.717 309.775 418.717C308.623 418.717 274.629 404.313 268.723 401.288L263.249 398.551V362.828V327.106L270.595 315.295C275.925 306.508 278.518 303.483 280.822 303.483C287.161 303.483 296.379 297.578 299.98 291.24C304.301 283.893 305.021 273.09 301.708 266.464C298.395 260.127 290.041 253.356 284.135 252.204C269.299 249.467 257.632 256.382 253.743 270.21C252.446 274.675 250.286 278.852 248.989 279.572C242.075 283.605 230.12 297.145 226.375 305.356C222.197 314.287 222.197 314.43 221.765 347.704C221.477 366.142 221.189 381.266 220.9 381.266C220.181 381.266 186.187 366.142 184.458 364.989C183.306 364.269 182.585 360.956 182.585 357.067C182.585 353.322 181.577 345.687 180.425 340.214C177.688 327.25 177.688 318.319 180.569 307.228C185.322 288.935 195.262 275.539 209.666 268.481C216.292 265.168 217.588 260.703 211.682 261.279C209.089 261.567 207.793 260.414 205.632 255.229C197.278 235.927 199.006 211.584 210.098 189.546C223.494 162.61 245.82 147.053 273.332 145.181L285.432 144.317L286.584 138.843C288.312 130.632 294.506 119.541 301.421 112.051C316.257 96.2062 339.448 91.1646 362.062 98.7987ZM856.129 305.5C886.375 318.176 889.832 319.616 889.832 320.624C889.832 321.056 884.791 323.793 878.598 326.53C872.546 329.267 860.881 334.596 852.672 338.341C844.605 342.087 837.833 345.255 837.543 345.255C837.402 345.255 837.26 334.596 837.26 321.489C837.26 308.38 837.402 297.721 837.402 297.721C837.543 297.721 846.047 301.178 856.129 305.5ZM137.644 304.491C136.78 307.516 136.492 317.311 136.78 326.098C137.068 335.028 136.924 342.374 136.492 342.374C135.628 342.374 99.0408 326.53 90.1102 322.208C86.221 320.336 86.7972 320.048 110.276 309.821C123.528 304.059 135.484 299.306 136.78 299.306C138.797 299.162 138.941 299.882 137.644 304.491ZM160.259 403.305L165.876 406.186L158.098 410.218C153.777 412.379 149.744 414.252 149.168 414.396C148.448 414.396 148.015 410.795 148.015 406.329C148.015 398.695 148.159 398.407 151.328 399.415C153.057 399.847 157.09 401.72 160.259 403.305ZM237.754 435.138C252.59 442.052 273.476 451.559 321.587 473.165C394.76 506.006 413.773 514.937 413.629 516.234C413.486 516.81 404.843 521.996 394.183 527.469C383.525 533.087 357.597 546.915 336.278 558.294L297.819 578.892L255.615 558.726C216.292 539.713 151.328 509.608 121.08 496.212C113.733 492.899 107.684 489.874 107.684 489.442C107.684 488.289 223.062 430.384 225.51 430.384C226.518 430.24 232.136 432.401 237.754 435.138ZM802.978 457.465C861.17 486.561 866.784 489.442 866.784 490.738C866.784 491.314 857.855 495.78 847.052 500.821C836.107 505.863 821.7 512.489 814.933 515.657C708.631 565.496 680.111 578.604 677.948 578.604C676.506 578.604 655.621 568.377 631.711 555.845C607.653 543.17 581.439 529.485 573.373 525.308C565.162 520.987 558.68 517.386 558.968 517.242C559.112 517.098 565.162 514.361 572.22 511.192C600.886 498.517 652.595 475.325 698.98 454.151C725.91 441.908 748.816 431.825 749.679 431.825C750.69 431.681 774.742 443.204 802.978 457.465ZM467.789 666.471V791.785L458.139 786.892C452.665 784.297 426.017 771.479 398.649 758.655C328.357 725.674 303.149 713.718 277.654 701.474C265.41 695.564 242.363 684.477 226.518 676.984C210.674 669.497 186.474 657.825 172.935 651.348L148.015 639.245L147.872 618.65C147.872 586.382 148.159 559.302 148.591 558.87C149.168 558.294 163.284 564.776 193.389 579.324C230.407 597.186 271.892 616.198 281.686 619.802C288.025 622.249 293.642 623.26 300.7 623.26C312.224 623.26 303.725 627.29 406.571 573.13C439.845 555.557 467.213 541.153 467.501 541.153C467.646 541.153 467.789 597.618 467.789 666.471Z" fill="white"/>
<path d="M350.973 139.274C344.779 141.147 339.882 145.036 335.849 151.518C332.968 155.84 329.655 158.72 323.893 161.601C319.428 163.762 310.353 169.236 303.583 173.7C296.813 178.166 288.315 183.064 284.57 184.36C273.622 188.537 264.691 200.781 264.691 211.728C264.691 215.617 268.725 224.547 272.326 228.437C276.791 233.19 286.01 237.223 292.924 237.223C300.126 237.223 310.641 230.886 313.522 224.836C314.53 222.531 315.971 219.65 316.403 218.498C318.275 214.609 357.023 191.13 361.488 191.13C373.444 191.13 385.687 177.59 385.687 164.77C385.543 147.629 367.25 134.233 350.973 139.274Z" fill="white"/>
<path d="M667.718 159.008C661.093 160.881 652.164 168.947 652.164 172.981C652.164 174.709 643.376 180.615 629.116 188.537L624.075 191.418L615.719 183.208C611.11 178.742 603.622 173.268 599.154 171.252C591.957 167.795 589.073 167.363 576.541 167.363C563.866 167.363 561.273 167.795 554.215 171.252C548.165 174.277 536.065 183.64 526.415 192.858C526.27 193.002 503.367 193.434 475.567 193.866L425.153 194.731L414.349 200.06C404.122 205.102 401.098 207.695 384.389 225.412C373.441 237.079 373.73 254.076 385.253 264.88C393.031 272.226 403.402 273.81 412.909 268.913C420.255 265.312 424.144 260.126 425.296 252.636C427.89 237.656 426.305 238.088 485.795 237.224L536.209 236.503L544.276 232.758C549.317 230.309 555.655 225.556 560.841 220.082C568.763 212.016 569.771 211.296 575.677 211.296C581.583 211.296 582.591 211.872 589.793 219.794C600.596 231.75 610.247 236.215 625.517 236.215C640.061 236.359 649.859 232.038 663.109 219.65C670.023 213.024 673.628 210.864 677.806 210.288C691.197 208.415 701.858 195.307 700.706 181.479C700.127 173.557 695.233 164.77 689.613 161.169C684.141 157.856 674.78 156.848 667.718 159.008Z" fill="white"/>
<path d="M474.559 277.7C471.678 279.285 467.645 283.03 465.772 286.054C463.756 289.079 460.155 292.392 457.418 293.4C448.487 297.002 432.643 308.093 423.856 317.024C390.294 350.586 402.394 405.321 445.606 416.557C451.944 418.141 462.459 418.717 489.827 418.717C514.602 418.717 526.558 419.293 528.719 420.446C530.447 421.31 536.209 422.174 541.394 422.174C549.605 422.319 551.622 421.742 557.095 417.997C572.075 407.626 572.507 384.435 557.815 373.344C554.214 370.463 550.613 369.311 544.275 368.735C536.785 368.014 534.913 368.447 529.151 371.76L522.669 375.505H487.955H453.241L449.495 371.76C446.182 368.447 445.895 367.294 446.759 361.388C447.911 353.178 452.232 348.281 468.941 336.613C478.304 329.988 482.481 327.971 488.387 327.25C502.647 325.378 512.01 316.303 513.451 303.196C514.602 292.248 508.985 281.733 499.19 276.691C493.572 273.811 481.041 274.243 474.559 277.7Z" fill="white"/>
</g>
<path d="M1415.83 415.401C1449.74 421.722 1477.61 438.675 1499.45 466.259C1521.29 493.844 1532.21 525.451 1532.21 561.08C1532.21 593.262 1524.16 621.708 1508.07 646.419C1492.55 670.555 1469.85 689.52 1439.97 703.312C1410.09 717.104 1374.74 724 1333.94 724H1074.48V122.318H1322.74C1363.54 122.318 1398.59 128.927 1427.9 142.144C1457.78 155.362 1480.2 173.751 1495.14 197.313C1510.65 220.874 1518.41 247.597 1518.41 277.48C1518.41 312.535 1508.93 341.843 1489.97 365.405C1471.58 388.966 1446.87 405.632 1415.83 415.401ZM1195.16 370.577H1305.5C1334.23 370.577 1356.36 364.255 1371.87 351.612C1387.39 338.395 1395.15 319.718 1395.15 295.582C1395.15 271.446 1387.39 252.769 1371.87 239.551C1356.36 226.334 1334.23 219.725 1305.5 219.725H1195.16V370.577ZM1316.7 625.731C1346.01 625.731 1368.71 618.835 1384.8 605.043C1401.47 591.251 1409.8 571.712 1409.8 546.426C1409.8 520.566 1401.18 500.452 1383.94 486.086C1366.7 471.144 1343.43 463.673 1314.12 463.673H1195.16V625.731H1316.7ZM1749.07 320.58C1764.58 295.295 1784.7 275.468 1809.41 261.102C1834.69 246.735 1863.43 239.551 1895.61 239.551V366.267H1863.71C1825.79 366.267 1797.05 375.174 1777.51 392.989C1758.55 410.804 1749.07 441.836 1749.07 486.086V724H1628.39V246.447H1749.07V320.58ZM1945.86 483.5C1945.86 435.227 1955.34 392.414 1974.31 355.06C1993.85 317.707 2019.99 288.973 2052.75 268.86C2086.08 248.746 2123.15 238.689 2163.95 238.689C2199.58 238.689 2230.61 245.873 2257.05 260.239C2284.06 274.606 2305.61 292.709 2321.7 314.546V246.447H2443.24V724H2321.7V654.177C2306.18 676.59 2284.63 695.266 2257.05 710.208C2230.04 724.575 2198.72 731.758 2163.09 731.758C2122.86 731.758 2086.08 721.414 2052.75 700.726C2019.99 680.038 1993.85 651.017 1974.31 613.663C1955.34 575.735 1945.86 532.347 1945.86 483.5ZM2321.7 485.224C2321.7 455.915 2315.95 430.917 2304.46 410.229C2292.96 388.966 2277.45 372.875 2257.91 361.956C2238.37 350.463 2217.39 344.716 2194.98 344.716C2172.57 344.716 2151.88 350.176 2132.92 361.094C2113.95 372.013 2098.44 388.104 2086.37 409.367C2074.88 430.055 2069.13 454.766 2069.13 483.5C2069.13 512.233 2074.88 537.519 2086.37 559.356C2098.44 580.619 2113.95 596.997 2132.92 608.491C2152.46 619.984 2173.14 625.731 2194.98 625.731C2217.39 625.731 2238.37 620.272 2257.91 609.353C2277.45 597.859 2292.96 581.769 2304.46 561.08C2315.95 539.818 2321.7 514.532 2321.7 485.224ZM2622.31 189.555C2601.05 189.555 2583.23 182.946 2568.86 169.729C2555.07 155.936 2548.18 138.984 2548.18 118.87C2548.18 98.7566 2555.07 82.0911 2568.86 68.8736C2583.23 55.0815 2601.05 48.1855 2622.31 48.1855C2643.57 48.1855 2661.1 55.0815 2674.89 68.8736C2689.26 82.0911 2696.44 98.7566 2696.44 118.87C2696.44 138.984 2689.26 155.936 2674.89 169.729C2661.1 182.946 2643.57 189.555 2622.31 189.555ZM2681.79 246.447V724H2561.11V246.447H2681.79ZM3065.66 239.551C3122.55 239.551 3168.52 257.653 3203.58 293.858C3238.63 329.488 3256.16 379.484 3256.16 443.847V724H3135.48V460.225C3135.48 422.297 3126 393.276 3107.03 373.163C3088.07 352.474 3062.21 342.13 3029.45 342.13C2996.12 342.13 2969.69 352.474 2950.15 373.163C2931.18 393.276 2921.7 422.297 2921.7 460.225V724H2801.02V246.447H2921.7V305.926C2937.79 285.238 2958.19 269.147 2982.9 257.654C3008.19 245.585 3035.77 239.551 3065.66 239.551ZM3712.28 415.401C3746.18 421.722 3774.06 438.675 3795.89 466.259C3817.73 493.844 3828.65 525.451 3828.65 561.08C3828.65 593.262 3820.6 621.708 3804.51 646.419C3789 670.555 3766.3 689.52 3736.41 703.312C3706.53 717.104 3671.19 724 3630.39 724H3370.92V122.318H3619.18C3659.98 122.318 3695.04 128.927 3724.35 142.144C3754.23 155.362 3776.64 173.751 3791.58 197.313C3807.1 220.874 3814.86 247.597 3814.86 277.48C3814.86 312.535 3805.37 341.843 3786.41 365.405C3768.02 388.966 3743.31 405.632 3712.28 415.401ZM3491.6 370.577H3601.94C3630.67 370.577 3652.8 364.255 3668.32 351.612C3683.83 338.395 3691.59 319.718 3691.59 295.582C3691.59 271.446 3683.83 252.769 3668.32 239.551C3652.8 226.334 3630.67 219.725 3601.94 219.725H3491.6V370.577ZM3613.15 625.731C3642.46 625.731 3665.15 618.835 3681.25 605.043C3697.91 591.251 3706.24 571.712 3706.24 546.426C3706.24 520.566 3697.62 500.452 3680.38 486.086C3663.14 471.144 3639.87 463.673 3610.56 463.673H3491.6V625.731H3613.15ZM4136.88 731.758C4090.91 731.758 4049.53 721.701 4012.75 701.588C3975.98 680.9 3946.96 651.879 3925.69 614.525C3905 577.171 3894.66 534.071 3894.66 485.224C3894.66 436.377 3905.29 393.276 3926.55 355.922C3948.39 318.569 3977.99 289.835 4015.34 269.722C4052.69 249.033 4094.36 238.689 4140.33 238.689C4186.31 238.689 4227.97 249.033 4265.32 269.722C4302.68 289.835 4331.99 318.569 4353.25 355.922C4375.09 393.276 4386 436.377 4386 485.224C4386 534.071 4374.8 577.171 4352.39 614.525C4330.55 651.879 4300.67 680.9 4262.74 701.588C4225.38 721.701 4183.43 731.758 4136.88 731.758ZM4136.88 626.593C4158.72 626.593 4179.12 621.421 4198.09 611.077C4217.63 600.158 4233.14 584.067 4244.64 562.804C4256.13 541.542 4261.88 515.681 4261.88 485.224C4261.88 439.825 4249.81 405.057 4225.67 380.921C4202.11 356.21 4173.09 343.854 4138.61 343.854C4104.13 343.854 4075.11 356.21 4051.55 380.921C4028.56 405.057 4017.07 439.825 4017.07 485.224C4017.07 530.623 4028.27 565.678 4050.68 590.389C4073.67 614.525 4102.4 626.593 4136.88 626.593ZM4738.3 724L4640.03 575.735L4552.97 724H4423.67L4579.69 484.362L4421.95 246.447H4558.14L4655.55 393.851L4743.48 246.447H4872.78L4715.89 484.362L4874.5 724H4738.3Z" fill="white"/>
</g>
<defs>
<clipPath id="clip0_1_29">
<rect width="4921" height="845" fill="white"/>
</clipPath>
<clipPath id="clip1_1_29">
<rect width="981" height="845.078" fill="white"/>
</clipPath>
</defs>
</svg>
